<?xml version="1.0" standalone="no"?>
<!DOCTYPE svg PUBLIC "-//W3C//DTD SVG 20010904//EN"
 "http://www.w3.org/TR/2001/REC-SVG-20010904/DTD/svg10.dtd">
<svg version="1.0" xmlns="http://www.w3.org/2000/svg"
 width="1024.000000pt" height="1024.000000pt" viewBox="0 0 1024.000000 1024.000000"
 preserveAspectRatio="xMidYMid meet">
<metadata>
Created by potrace 1.14, written by Peter Selinger 2001-2017
</metadata>
<g transform="translate(0.000000,1024.000000) scale(0.100000,-0.100000)"
fill="#000000" stroke="none">
<path d="M2321 10223 c-19 -10 -44 -31 -55 -46 -20 -27 -21 -44 -24 -302 l-3
-274 -272 -3 c-380 -4 -367 7 -367 -318 0 -325 -13 -314 368 -318 l272 -3 0
-320 0 -319 -592 -1 c-326 0 -604 -3 -618 -5 -43 -8 -124 -50 -154 -80 -117
-117 -123 -268 -20 -501 8 -17 14 -34 14 -37 0 -3 15 -45 34 -94 19 -48 55
-143 81 -212 26 -69 58 -152 70 -185 13 -33 62 -163 109 -290 47 -126 90 -239
95 -250 44 -94 217 -580 208 -582 -7 -1 -71 -3 -142 -5 -119 -3 -136 -6 -187
-31 -61 -30 -99 -64 -132 -117 -40 -65 -45 -102 -43 -344 2 -226 3 -232 28
-286 31 -65 77 -113 140 -145 61 -32 74 -33 287 -34 l183 -1 -6 -232 c-7 -287
-13 -405 -30 -608 -3 -30 -7 -84 -10 -120 -3 -36 -7 -81 -10 -100 -2 -19 -9
-80 -15 -135 -7 -55 -13 -111 -15 -125 -11 -90 -17 -136 -21 -154 -2 -12 -7
-41 -10 -66 -3 -25 -17 -110 -30 -190 -33 -194 -32 -191 -49 -270 -8 -38 -17
-84 -20 -102 -3 -18 -8 -40 -10 -48 -2 -8 -6 -26 -9 -40 -4 -27 -74 -324 -82
-352 -5 -17 60 -18 1276 -18 l1280 0 -5 23 c-3 12 -18 76 -34 142 -35 142 -85
376 -105 495 -40 226 -51 293 -61 365 -2 17 -13 93 -24 170 -11 77 -22 167
-26 200 -3 33 -7 74 -9 90 -3 17 -7 68 -11 115 -4 47 -8 101 -10 120 -15 155
-24 345 -30 607 l-6 233 178 1 c207 1 221 2 288 33 64 29 111 77 144 146 26
54 26 59 28 290 2 228 1 237 -22 295 -31 76 -93 138 -169 169 -50 21 -77 24
-189 25 -72 1 -132 3 -133 4 -1 1 20 61 47 132 28 72 57 150 65 175 8 25 21
59 29 75 20 43 483 1272 522 1385 27 78 32 107 29 165 -3 85 -36 165 -87 214
-37 36 -117 77 -164 85 -16 2 -294 5 -617 5 l-588 1 0 320 0 320 260 0 c390 0
375 -13 375 320 0 333 15 320 -375 320 l-259 0 -3 273 c-3 297 -5 309 -61 343
-28 17 -56 19 -247 22 -190 2 -219 1 -249 -15z"/>
<path d="M6118 6371 l-33 -29 0 -684 0 -683 27 -73 c57 -156 107 -215 367
-433 101 -85 214 -179 250 -210 l66 -55 -1 -100 c-2 -104 -13 -457 -19 -609
-2 -49 -7 -164 -10 -255 -6 -167 -10 -279 -20 -537 l-6 -143 1261 0 1260 0 -5
153 c-3 83 -7 206 -10 272 -6 148 -14 372 -20 525 -2 63 -7 203 -11 310 -4
107 -7 237 -8 289 l-1 95 230 193 c264 222 297 252 348 312 54 65 113 194 126
276 8 48 11 268 9 713 l-3 644 -32 28 -32 29 -301 1 c-362 1 -366 0 -386 -92
-1 -5 -2 -129 -3 -278 l-1 -270 -250 0 -249 0 -3 290 -3 290 -28 27 -27 28
-578 3 c-385 2 -589 0 -613 -8 -65 -18 -69 -38 -69 -354 l0 -276 -250 0 -250
0 0 268 c0 147 -4 283 -10 302 -18 64 -21 65 -367 68 l-312 3 -33 -30z m2023
-1923 c71 -34 116 -78 148 -147 l26 -56 3 -362 3 -363 -321 0 -321 0 3 363 3
362 27 55 c42 85 79 120 165 155 79 33 185 30 264 -7z"/>
<path d="M837 1896 c-83 -34 -121 -69 -162 -147 -30 -59 -33 -84 -34 -296 l-1
-172 -92 -49 c-51 -27 -165 -87 -253 -132 -190 -98 -222 -122 -261 -192 l-29
-53 0 -310 0 -310 27 -55 c33 -69 75 -113 141 -148 l52 -27 2335 0 2335 0 50
27 c68 36 113 82 144 148 26 55 26 55 28 350 2 277 1 298 -19 349 -30 79 -84
125 -244 207 -232 119 -359 186 -366 193 -3 3 -8 96 -10 206 -3 190 -5 203
-29 256 -32 68 -77 113 -149 147 l-55 27 -1675 2 -1675 3 -58 -24z"/>
<path d="M6630 1911 c-89 -27 -160 -89 -199 -171 -25 -52 -26 -64 -29 -255 -2
-110 -7 -203 -10 -206 -7 -6 -91 -51 -357 -189 -171 -89 -203 -113 -241 -182
l-29 -53 0 -310 0 -310 27 -55 c33 -69 75 -113 141 -148 l52 -27 2015 0 2015
0 50 27 c67 35 109 78 142 146 l28 57 0 310 0 310 -29 53 c-45 81 -52 85 -481
307 -60 31 -113 59 -117 63 -4 4 -8 93 -9 199 -2 176 -4 197 -25 250 -31 74
-93 137 -169 168 l-60 24 -1345 0 c-740 -1 -1356 -4 -1370 -8z"/>
</g>
</svg>
